<?xml version="1.0" encoding="UTF-8"?>
<svg version="1.1" xmlns="http://www.w3.org/2000/svg" width="512" height="512">
<path d="M0 0 C7.32617072 6.3659164 12.0725726 13.42828872 16.75 21.875 C17.69939453 23.53595703 17.69939453 23.53595703 18.66796875 25.23046875 C29.37807605 44.17912013 33.5125283 60.72173747 28.5625 82.1875 C22.28374657 103.54426347 10.16935372 121.93833136 -5 138 C-6.06652146 139.26746029 -7.12912091 140.53823264 -8.1875 141.8125 C-41.45260523 179.72101808 -94.5962798 207.13980757 -144 215 C-144.70737305 215.11424316 -145.41474609 215.22848633 -146.14355469 215.34619141 C-171.61125516 219.2872042 -201.3626436 218.74915777 -223 203 C-228.5031414 198.56558461 -233.50500563 194.19567184 -237 188 C-241.02678313 189.94913439 -245.01589907 191.96518235 -249 194 C-250.66482422 194.81210937 -250.66482422 194.81210937 -252.36328125 195.640625 C-258.14651652 198.45915898 -258.14651652 198.45915898 -262.20703125 203.19921875 C-262.64922959 204.72234638 -263.04858357 206.25862447 -263.40234375 207.8046875 C-265.47782573 215.42835334 -272.90343235 219.05793927 -279.29296875 222.71484375 C-282 224 -282 224 -285 224 C-285.32871094 223.26136719 -285.65742188 222.52273438 -285.99609375 221.76171875 C-291.7717948 209.44335363 -300.29749023 200.33790607 -310 191 C-303.25507374 185.39158146 -294.83737347 179.24033312 -286 178 C-285.16210938 178.18949219 -284.32421875 178.37898437 -283.4609375 178.57421875 C-271.31053935 181.0388344 -262.61927502 173.64959395 -252.81323242 167.20922852 C-251.91568237 166.6106604 -251.91568237 166.6106604 -251 166 C-251.19335938 165.43152344 -251.38671875 164.86304688 -251.5859375 164.27734375 C-259.29803056 141.40831532 -257.47016028 120.80004382 -247.1796875 99.0078125 C-234.5118798 73.67870843 -213.34952512 50.83363452 -190.65771484 34.21777344 C-189.0444639 33.03266361 -187.45345532 31.81746148 -185.86328125 30.6015625 C-158.02504174 9.62929466 -124.99096507 -5.45295268 -91 -13 C-90.28972656 -13.16371094 -89.57945312 -13.32742187 -88.84765625 -13.49609375 C-59.84803638 -19.93454147 -23.99183774 -19.20883167 0 0 Z M-183 76 C-183.50869629 76.44698242 -184.01739258 76.89396484 -184.54150391 77.35449219 C-206.58163885 96.76098819 -227.85191448 121.93589394 -232 152 C-232.13755267 154.35162165 -232.21924343 156.70705966 -232.25 159.0625 C-232.27578125 160.24972656 -232.3015625 161.43695313 -232.328125 162.66015625 C-231.96277303 166.37891735 -231.31053513 168.08822885 -229 171 C-210.89535589 185.02308183 -185.50239069 184.69229183 -163.71679688 182.69970703 C-157.38010697 181.87669221 -151.19140827 180.56628247 -145 179 C-144.18096191 178.79632813 -143.36192383 178.59265625 -142.51806641 178.3828125 C-115.99342502 171.57973804 -90.5594507 159.44652649 -68 144 C-67.42975098 143.61376465 -66.85950195 143.2275293 -66.27197266 142.82958984 C-34.66789671 121.31697978 -2.98800711 90.5454949 5.3515625 51.8828125 C6.42194709 45.47340118 7.58292673 37.19641513 5 31 C-46.29634144 -13.52323228 -142.46275498 39.92354261 -183 76 Z " fill="#F28221" transform="translate(471,39)"/>
<path d="M0 0 C1.04542969 0.20496094 2.09085937 0.40992187 3.16796875 0.62109375 C11.13405072 2.28279226 16.57796852 5.02707265 23.1875 9.75 C35.49025538 18.05698868 50.58046809 19.88943163 65.05078125 17.1484375 C66.87282209 16.62634765 68.69181616 16.09352237 70.5078125 15.55078125 C75.17793357 14.44013761 79.85070495 14.00357198 84.625 13.5625 C85.95700439 13.43705811 85.95700439 13.43705811 87.31591797 13.30908203 C92.52289601 12.85541053 97.64897434 12.67100194 102.875 12.75 C101.23887901 16.49609123 98.86467949 19.38725321 96.3125 22.5625 C78.92051812 44.75761978 66.94524426 71.04250366 69.875 99.75 C70.31111993 102.08595867 70.81979022 104.3798018 71.40405273 106.68286133 C72.33075359 110.75044876 72.85537715 113.96261204 70.875 117.75 C65.03734936 122.95444337 58.7970083 126.18929834 50.87915039 125.93603516 C49.53826536 125.85338345 48.1975998 125.76709411 46.85717773 125.67724609 C37.28656084 125.2432203 30.03315613 130.6269478 22.3125 135.75 C18.875 137.75 18.875 137.75 16.640625 137.734375 C12.54097163 136.27517634 9.55830811 133.70495031 6.1875 131 C4.6551188 129.80149972 3.12121805 128.60494021 1.5859375 127.41015625 C0.80186523 126.7980127 0.01779297 126.18586914 -0.79003906 125.55517578 C-15.03933135 114.53894124 -30.09113964 104.64815278 -45.125 94.75 C-44.59509327 88.47658804 -42.52904497 83.35667291 -40 77.625 C-39.59837646 76.70154785 -39.19675293 75.7780957 -38.78295898 74.82666016 C-35.11505807 66.50538702 -31.1791955 58.33129325 -26.125 50.75 C-27.445 50.42 -28.765 50.09 -30.125 49.75 C-30.38152344 50.44351563 -30.63804688 51.13703125 -30.90234375 51.8515625 C-32.27320811 55.10134318 -33.94911814 58.05561466 -35.6875 61.125 C-41.72012521 72.08763392 -47.32093299 84.52031994 -50.125 96.75 C-49.42101074 97.00273682 -48.71702148 97.25547363 -47.99169922 97.51586914 C-44.80954896 98.88580353 -42.13974478 100.57304221 -39.2578125 102.49609375 C-38.70601822 102.86303345 -38.15422394 103.22997314 -37.58570862 103.60803223 C-35.80354979 104.79591922 -34.02646429 105.99111665 -32.25 107.1875 C-31.64274078 107.59461212 -31.03548157 108.00172424 -30.40982056 108.4211731 C-21.14167048 114.63600821 -11.98470013 120.96211475 -3.125 127.75 C-2.54008789 128.19359863 -1.95517578 128.63719727 -1.35253906 129.09423828 C7.14744427 135.55504952 15.15070835 142.38157003 22.875 149.75 C23.36129883 150.20375 23.84759766 150.6575 24.34863281 151.125 C31.04765811 157.38394334 36.51239726 163.65867697 40.875 171.75 C41.23464844 172.41386719 41.59429687 173.07773437 41.96484375 173.76171875 C45.10082497 180.65509683 45.03643872 189.1366351 42.75 196.25 C39.38056178 200.74258429 35.38287828 204.34100788 29.875 205.75 C23.31220305 206.57034962 18.34179973 205.51075972 12.875 201.75 C9.54970795 198.70181562 8.44417634 195.62299654 7.0625 191.4375 C3.92996225 182.35679718 -2.87780568 176.70880422 -10.125 170.75 C-10.88248535 170.12399902 -10.88248535 170.12399902 -11.65527344 169.48535156 C-25.87241522 157.77954685 -40.77077857 147.18804571 -56.1875 137.125 C-56.74445557 136.7610614 -57.30141113 136.3971228 -57.87524414 136.02215576 C-63.34269212 132.45351403 -68.82335365 128.91509784 -74.390625 125.50390625 C-75.16913818 125.02066895 -75.94765137 124.53743164 -76.74975586 124.03955078 C-78.14477851 123.1774109 -79.54853646 122.32914115 -80.96313477 121.49951172 C-85.77852217 118.51151823 -89.11408664 115.12976626 -91.125 109.75 C-92.72152611 100.46687117 -89.79923147 92.25207491 -86.625 83.625 C-86.16340255 82.33698762 -85.70247236 81.04873593 -85.2421875 79.76025391 C-81.67267395 69.8640304 -77.77655306 60.18619162 -73.125 50.75 C-72.73844238 49.95916016 -72.35188477 49.16832031 -71.95361328 48.35351562 C-63.00062594 30.21315094 -51.90300575 11.99802686 -33.125 2.75 C-32.14273438 2.2653125 -31.16046875 1.780625 -30.1484375 1.28125 C-19.46453349 -3.58736449 -11.28182751 -2.39651243 0 0 Z " fill="#0A3054" transform="translate(140.125,87.25)"/>
<path d="M0 0 C2.11221976 3.16832964 2.63358778 5.20987544 3.40583801 8.90388489 C3.66746735 10.13943115 3.92909668 11.37497742 4.19865417 12.64796448 C4.48257236 14.02155114 4.76636632 15.39516348 5.05004883 16.76879883 C5.35380702 18.21554193 5.65814308 19.6621638 5.9630127 21.1086731 C6.79400723 25.05966428 7.6168495 29.01231513 8.43833756 32.96529222 C9.3123684 37.16402611 10.19391747 41.36118116 11.07463074 45.55851746 C12.75721701 53.58309472 14.43311032 61.60905463 16.10661954 69.63552922 C18.14027579 79.38776525 20.18233369 89.13823794 22.22460938 98.88867188 C24.39975289 109.27382173 26.57315878 119.65932164 28.73782349 130.04666138 C29.44696518 133.44862102 30.15626295 136.85054807 30.86572266 140.25244141 C31.03912493 141.08394848 31.2125272 141.91545556 31.39118409 142.77215981 C33.7294869 153.97934247 36.0975706 165.17977699 38.49418938 176.37462914 C39.42248849 180.71508986 40.34588119 185.05659779 41.26941293 189.39807504 C41.98345062 192.75167855 42.7013318 196.10436074 43.42847633 199.4551487 C44.21476676 203.08503091 44.98887461 206.71731823 45.76049805 210.3503418 C46.10509976 211.91538106 46.10509976 211.91538106 46.45666313 213.51203728 C48.66059252 224.00755664 49.14901722 233.29664078 44 243 C39.64508531 248.8688128 34.18415461 253.3139229 27 255 C17.59810885 256.08483359 9.85099755 255.5383006 2 250 C-4.72852389 244.29538192 -7.59166792 238.15478101 -9.40405273 229.75488281 C-9.61131957 228.84020863 -9.81858641 227.92553444 -10.03213406 226.98314285 C-10.70387282 223.99200378 -11.35439124 220.99688129 -12 218 C-12.2169112 217.00161606 -12.4338224 216.00323212 -12.65730667 214.97459412 C-14.32023508 207.29803633 -15.93034791 199.61075453 -17.53515625 191.921875 C-18.05951282 189.42037686 -18.58413168 186.91893368 -19.10899353 184.4175415 C-20.34679898 178.51544793 -21.58213041 172.61284186 -22.81615776 166.70995736 C-24.5783964 158.28109858 -26.34530076 149.85321762 -28.11174583 141.42523956 C-29.45545775 135.01366415 -30.79841315 128.60193249 -32.13955688 122.18981934 C-34.76270242 109.65173946 -37.39491225 97.11570968 -40.05019343 84.58440161 C-40.47930014 82.55876079 -40.90801843 80.53303821 -41.33658123 78.50728226 C-41.47554815 77.85042647 -41.61451507 77.19357069 -41.75769311 76.51681018 C-41.89545575 75.86562378 -42.03321838 75.21443738 -42.17515564 74.54351807 C-43.24399159 69.49151417 -44.31666241 64.44034448 -45.39137268 59.3895874 C-45.87101633 57.12336483 -46.35051196 54.85711093 -46.82983398 52.59082031 C-47.05121222 51.55570061 -47.27259045 50.5205809 -47.50067711 49.45409393 C-47.69968935 48.50995888 -47.89870159 47.56582382 -48.10374451 46.59307861 C-48.27790107 45.77339222 -48.45205763 44.95370583 -48.63149166 44.10918045 C-49 42 -49 42 -49 39 C-48.17757812 39.05800781 -47.35515625 39.11601562 -46.5078125 39.17578125 C-38.51461117 39.49883211 -32.54446158 38.83508729 -26 34 C-21.73554516 29.85623727 -19.70079718 24.85740924 -19 19 C-19.13535156 17.86046875 -19.27070313 16.7209375 -19.41015625 15.546875 C-19 12 -19 12 -17.66088867 10.64257812 C-15.74181851 9.37550808 -13.79681093 8.29799746 -11.75 7.25 C-10.38972094 6.50686078 -9.03032053 5.7621106 -7.671875 5.015625 C-7.03314453 4.67337891 -6.39441406 4.33113281 -5.73632812 3.97851562 C-3.68105166 2.82025521 -1.82827108 1.48900428 0 0 Z " fill="#0A3054" transform="translate(207,257)"/>
<path d="M0 0 C0.09348482 25.00860091 0.16399962 50.01717559 0.20724869 75.0259161 C0.22786467 86.63818647 0.25596699 98.25034819 0.30175781 109.86254883 C0.34165492 119.98498103 0.36743982 130.10733455 0.37635398 140.2298432 C0.38156382 145.58853336 0.39378903 150.94699843 0.42292023 156.30561638 C0.45013458 161.35267859 0.45843277 166.39942366 0.45243073 171.44655228 C0.45352826 173.2956178 0.46144615 175.14469429 0.4768219 176.99369621 C0.56319905 187.9198133 0.04054307 195.99690744 -6.1875 205.25 C-13.42572805 212.32737854 -20.94404123 214.37768009 -30.828125 214.28125 C-38.31964972 213.61697687 -44.80732226 210.43419763 -50 205 C-53.95103799 198.91239527 -56.09220385 193.92958464 -56.28175354 186.6212616 C-56.30843555 185.64605567 -56.30843555 185.64605567 -56.33565658 184.65114862 C-56.39358788 182.46829434 -56.44422585 180.28534078 -56.49438477 178.10229492 C-56.53338846 176.53837884 -56.5724785 174.9744649 -56.61164856 173.41055298 C-56.95792477 159.11007845 -57.16204125 144.8072069 -57.32562351 130.50359631 C-57.43820033 120.89238232 -57.59579074 111.28618061 -57.86547852 101.67797852 C-58.100907 93.28839975 -58.25060968 84.90235415 -58.29879421 76.5095337 C-58.32710354 72.07047309 -58.39630252 67.64108754 -58.56808662 63.20506859 C-59.56859479 36.30093438 -59.56859479 36.30093438 -53.64666557 29.16371918 C-47.94718071 24.47923207 -41.6955303 21.59464518 -34.80646515 19.07188225 C-31.11535328 17.66212404 -27.99303248 15.80957826 -24.65234375 13.7109375 C-23.19151367 12.85822266 -23.19151367 12.85822266 -21.70117188 11.98828125 C-19.79218789 10.87392028 -17.88334244 9.75932195 -15.97460938 8.64453125 C-13.31778589 7.09396805 -10.65933036 5.54625861 -8 4 C-7.27441895 3.5762207 -6.54883789 3.15244141 -5.80126953 2.71582031 C-1.11582493 0 -1.11582493 0 0 0 Z " fill="#0A3055" transform="translate(139,298)"/>
<path d="M0 0 C10.71380978 7.29903845 22.61739838 16.15411613 25.85522461 29.26391602 C25.85522461 30.58391602 25.85522461 31.90391602 25.85522461 33.26391602 C25.13270508 33.67528809 24.41018555 34.08666016 23.66577148 34.51049805 C10.00627562 42.29157853 -3.63291459 50.10268317 -17.20141602 58.04174805 C-25.57744505 62.94069951 -33.98083754 67.7911752 -42.39038086 72.63232422 C-47.90691137 75.81058765 -53.4155594 79.00140039 -58.91040039 82.21704102 C-59.9996582 82.85448242 -61.08891602 83.49192383 -62.21118164 84.14868164 C-64.27729695 85.35919705 -66.34245931 86.57134099 -68.40649414 87.78540039 C-77.75601963 93.26414452 -84.0361041 96.49821283 -95.14477539 95.26391602 C-101.13171083 93.4015477 -105.16397189 88.8262913 -108.15258789 83.45141602 C-110.59242794 78.00024184 -110.52678991 73.02701057 -109.14477539 67.26391602 C-106.43407518 60.25348443 -101.13482134 56.68421477 -94.81274414 53.08422852 C-93.77939941 52.49246826 -92.74605469 51.90070801 -91.68139648 51.29101562 C-90.02358154 50.34947632 -90.02358154 50.34947632 -88.33227539 49.38891602 C-86.57204817 48.38257196 -84.81274796 47.37461978 -83.0534668 46.36662292 C-81.85192004 45.67832526 -80.65009482 44.99051349 -79.44799805 44.30317688 C-73.61910142 40.96925308 -67.81687043 37.59030938 -62.01977539 34.20141602 C-61.03904053 33.62858887 -60.05830566 33.05576172 -59.04785156 32.46557617 C-57.0692949 31.30986124 -55.09086017 30.15393754 -53.11254883 28.99780273 C-50.1265861 27.25328914 -47.13976252 25.51025979 -44.15258789 23.76782227 C-42.663479 22.89879272 -42.663479 22.89879272 -41.14428711 22.01220703 C-39.16011764 20.85571691 -37.17478257 19.70122406 -35.18823242 18.54882812 C-29.90833129 15.48199934 -24.6596432 12.37260517 -19.44165039 9.20141602 C-18.34594727 8.54270508 -17.25024414 7.88399414 -16.12133789 7.20532227 C-14.0092729 5.9345035 -11.90472452 4.65108706 -9.80883789 3.35375977 C-8.86266602 2.78786133 -7.91649414 2.22196289 -6.94165039 1.63891602 C-6.10988281 1.13102539 -5.27811523 0.62313477 -4.42114258 0.09985352 C-2.14477539 -0.73608398 -2.14477539 -0.73608398 0 0 Z " fill="#F28221" transform="translate(120.144775390625,254.736083984375)"/>
<path d="M0 0 C10.97283002 7.4413445 17.65637316 16.86393411 21.1875 29.6875 C20.5584375 29.58050781 19.929375 29.47351562 19.28125 29.36328125 C13.18017915 28.5087638 8.60102839 28.5578039 3.1875 31.6875 C-0.7063309 34.8890943 -2.78341686 38.09536446 -4.8125 42.6875 C-7.88509521 43.04203022 -10.75388001 43.21320031 -13.8125 42.6875 C-16.0625 39.875 -16.0625 39.875 -17.8125 36.6875 C-22.09939816 33.03102804 -27.32091382 32.4116669 -32.8125 32.6875 C-38.18805597 34.24043839 -41.75077143 36.97714836 -44.8125 41.6875 C-45.18375 42.43 -45.555 43.1725 -45.9375 43.9375 C-46.8125 45.6875 -46.8125 45.6875 -48.8125 46.6875 C-50.45579564 46.90828724 -52.10600051 47.07883443 -53.7578125 47.22265625 C-55.25054687 47.35317383 -55.25054687 47.35317383 -56.7734375 47.48632812 C-58.33964844 47.6168457 -58.33964844 47.6168457 -59.9375 47.75 C-60.9584375 47.84087891 -61.979375 47.93175781 -63.03125 48.02539062 C-68.64857085 48.50553437 -74.17523199 48.78888971 -79.8125 48.6875 C-80.38145482 33.8314574 -76.79465129 20.41032285 -66.9765625 8.9375 C-49.16070551 -9.58584589 -21.98031995 -13.17039414 0 0 Z " fill="#0A3055" transform="translate(220.8125,7.3125)"/>
<path d="M0 0 C1.98 0 3.96 0 6 0 C6.34611328 0.88751953 6.34611328 0.88751953 6.69921875 1.79296875 C9.04628376 7.47973102 11.41191476 11.72172464 16.765625 15.12109375 C19.69112057 16.27185687 22.11708231 16.19310691 25.25 16.125 C26.86648437 16.09792969 26.86648437 16.09792969 28.515625 16.0703125 C29.74539062 16.03550781 29.74539062 16.03550781 31 16 C27.54754184 27.77288232 18.82026079 36.72448782 8.19921875 42.53125 C-5.63074205 49.11148031 -20.51300974 50.41641343 -35.0625 45.26953125 C-48.49840922 39.46278857 -58.70121781 30.11073571 -64.46484375 16.5546875 C-67 9.06650356 -67 9.06650356 -67 6 C-63.52147832 5.65970492 -60.04210091 5.3290613 -56.5625 5 C-55.58861328 4.90460937 -54.61472656 4.80921875 -53.61132812 4.7109375 C-47.70951151 4.15825902 -41.92744322 3.90192441 -36 4 C-35.76925781 4.59167969 -35.53851563 5.18335938 -35.30078125 5.79296875 C-32.86383291 11.69751158 -30.4449656 15.99043673 -24.75 19.3125 C-18.94995626 20.76251094 -14.00037556 20.95077271 -8.6875 17.9375 C-4.20323072 14.75742059 -1.65259414 11.17930479 -0.54296875 5.7734375 C-0.28905251 3.85721626 -0.13531432 1.92822906 0 0 Z " fill="#0A3055" transform="translate(209,54)"/>
<path d="M0 0 C0.66 0 1.32 0 2 0 C2.98484108 1.74681293 3.96266187 3.4975851 4.9375 5.25 C5.48277344 6.22453125 6.02804687 7.1990625 6.58984375 8.203125 C11.41906341 17.78130028 10.1365402 32.19165723 7.5 42.25 C1.11900867 61.25910705 -10.19680169 76.73087095 -24 91 C-24.88558594 91.93714844 -25.77117187 92.87429687 -26.68359375 93.83984375 C-33.26592293 100.6514558 -40.31209586 106.51111348 -48 112 C-48.58265625 112.41636719 -49.1653125 112.83273438 -49.765625 113.26171875 C-76.26377699 131.98323918 -107.45172175 145.10634327 -140.1875 145.25 C-141.34314453 145.270625 -142.49878906 145.29125 -143.68945312 145.3125 C-158.77987357 145.38028403 -171.9031867 141.52414067 -183.08203125 131.13671875 C-185.89536674 128.00251403 -187.4048817 124.8837663 -189 121 C-188.34 121 -187.68 121 -187 121 C-185.33333333 122.66666667 -183.66666667 124.33333333 -182 126 C-171.34816803 135.28906495 -156.18969365 137.55269355 -142.46484375 137.24609375 C-120.64732664 135.6964843 -100.590902 129.55631323 -81 120 C-80.02836914 119.53255371 -80.02836914 119.53255371 -79.03710938 119.05566406 C-45.66684153 102.81729994 -12.7754012 73.52229116 0 38.01171875 C4.20293977 25.35364623 4.43321671 12.69272165 0 0 Z " fill="#F28221" transform="translate(445,63)"/>
<path d="M0 0 C0 3.3405248 -0.48710825 4.1080689 -2.2734375 6.81640625 C-2.76384521 7.57236084 -3.25425293 8.32831543 -3.75952148 9.10717773 C-4.29262939 9.91743408 -4.8257373 10.72769043 -5.375 11.5625 C-10.15411821 18.93561065 -14.5773422 26.4043364 -18.61279297 34.21118164 C-21.85173727 40.29484285 -25.35281936 43.74827478 -32 46 C-34.48676303 46.35646433 -36.98569406 46.63221223 -39.48828125 46.8515625 C-40.5430793 46.94719986 -40.5430793 46.94719986 -41.6191864 47.04476929 C-43.84972147 47.24535915 -46.0810124 47.43533198 -48.3125 47.625 C-49.83144261 47.75971488 -51.3503238 47.89512422 -52.86914062 48.03125 C-56.57875017 48.36220716 -60.28911261 48.68365374 -64 49 C-58.8688241 38.06955641 -46.46184753 30.07167769 -37 23 C-36.44473633 22.5786377 -35.88947266 22.15727539 -35.31738281 21.72314453 C-24.29182714 13.38396908 -12.40808995 6.10518264 0 0 Z " fill="#0A3055" transform="translate(342,85)"/>
<path d="M0 0 C4.24854072 2.43023522 6.64182015 6.09505244 8.625 10.5 C8.625 11.16 8.625 11.82 8.625 12.5 C7.85647705 12.62004395 7.0879541 12.74008789 6.29614258 12.86376953 C-13.41509754 15.98619681 -32.42625597 19.99720329 -51.1953125 26.93359375 C-53.375 27.5 -53.375 27.5 -56.375 26.5 C-43.30672158 13.77727702 -19.41274357 -7.9530793 0 0 Z " fill="#0A3054" transform="translate(397.375,4.5)"/>
<path d="M0 0 C7.87511266 4.50006437 7.87511266 4.50006437 11.15625 6.83984375 C11.86910156 7.34580078 12.58195312 7.85175781 13.31640625 8.37304688 C14.03699219 8.88931641 14.75757812 9.40558594 15.5 9.9375 C16.58087891 10.70610352 16.58087891 10.70610352 17.68359375 11.49023438 C19.10518113 12.50179791 20.52452081 13.51652892 21.94140625 14.53466797 C23.31402488 15.51171458 24.69699449 16.47437966 26.08984375 17.42236328 C27.75988118 18.56778382 29.38503747 19.77815335 31 21 C31 21.66 31 22.32 31 23 C27.39124764 25.10392821 23.77994138 27.20338301 20.16625977 29.29882812 C18.93866943 30.01148691 17.7117707 30.72533846 16.4855957 31.44042969 C14.71748824 32.47128731 12.94689342 33.49775292 11.17578125 34.5234375 C10.11270752 35.14138184 9.04963379 35.75932617 7.9543457 36.39599609 C5 38 5 38 0 40 C0 26.8 0 13.6 0 0 Z " fill="#0A3054" transform="translate(83,228)"/>
<path d="M0 0 C3.32352974 2.54104822 5.26926206 4.92699442 6.234375 8.98046875 C6.68529658 14.03079049 6.30705506 16.92014153 3.234375 20.98046875 C-0.04287097 24.66737047 -2.07539327 25.85290409 -7.078125 26.23046875 C-12.28307594 25.87759072 -15.30737115 24.35989807 -19.078125 20.79296875 C-21.22248362 17.21903772 -22.06168798 14.10257642 -21.765625 9.98046875 C-20.74568096 6.05047459 -19.1813342 3.12116159 -15.99609375 0.5546875 C-10.66845845 -2.50318602 -5.44392294 -3.14350417 0 0 Z " fill="#0A3055" transform="translate(198.765625,45.01953125)"/>
<path d="M0 0 C4.59809038 1.79925276 6.80850458 4.61700917 9 9 C9.84026553 13.73604208 9.46969217 17.06061565 7.3125 21.375 C4.40158786 24.67927865 2.33639371 26.69358771 -2.14453125 27.28125 C-7.99988656 27.51429897 -11.2736032 26.33691155 -15.75 22.5 C-18.59924612 19.08090466 -18.44441378 14.82403821 -18.42578125 10.58203125 C-17.7217284 6.31249977 -15.22845385 3.73498551 -12 1 C-8.30813111 -0.84593445 -4.03827021 -0.34449699 0 0 Z " fill="#0A3055" transform="translate(238,40)"/>
</svg>
